<?xml version="1.0" encoding="UTF-8" standalone="no"?>
<!-- Created with Inkscape (http://www.inkscape.org/) -->

<svg
   width="200"
   height="200"
   viewBox="0 0 52.916665 52.916666"
   version="1.1"
   id="svg1"
   inkscape:version="1.4 (86a8ad7, 2024-10-11)"
   sodipodi:docname="sg_logo.svg"
   xml:space="preserve"
   inkscape:export-filename="sg_logo.png"
   inkscape:export-xdpi="96"
   inkscape:export-ydpi="96"
   xmlns:inkscape="http://www.inkscape.org/namespaces/inkscape"
   xmlns:sodipodi="http://sodipodi.sourceforge.net/DTD/sodipodi-0.dtd"
   xmlns="http://www.w3.org/2000/svg"
   xmlns:svg="http://www.w3.org/2000/svg"><sodipodi:namedview
     id="namedview1"
     pagecolor="#030712"
     bordercolor="#000000"
     borderopacity="0.25"
     inkscape:showpageshadow="2"
     inkscape:pageopacity="0.0"
     inkscape:pagecheckerboard="0"
     inkscape:deskcolor="#d1d1d1"
     inkscape:document-units="mm"
     inkscape:zoom="4"
     inkscape:cx="46.375"
     inkscape:cy="86.875"
     inkscape:window-width="2560"
     inkscape:window-height="1351"
     inkscape:window-x="-9"
     inkscape:window-y="88"
     inkscape:window-maximized="1"
     inkscape:current-layer="svg1"
     showguides="true"
     showgrid="false"
     inkscape:export-bgcolor="#ffffff00" /><defs
     id="defs1" /><path
     style="display:inline;fill:#ffffff;fill-opacity:1;stroke-width:2.64583;stroke-linecap:round;stroke-dasharray:none"
     d="M 26.458984,0.01757813 C 11.793074,-0.32206388 0.99641109,11.482105 0.01757813,26.458984 -0.9647279,41.489004 10.486744,52.692139 26.458984,52.900391 42.052682,53.103707 53.436307,41.316905 52.900391,26.458984 52.624381,18.806791 49.293736,11.927595 44.09107,7.0986147 39.372577,2.7190299 33.401698,0.1783617 26.458984,0.01757813 Z m -0.472704,0.6428352 c 9.118648,0.039931 17.619667,4.28203617 22.305932,11.35201267 2.744319,4.140241 4.133537,9.110635 4.342554,14.446558 C 53.19893,40.861322 40.925651,52.582278 26.458984,52.634766 11.831088,52.687839 4.3577214,42.946457 1.9168871,35.22031 -3.1963929,19.03488 10.251321,0.5915091 25.98628,0.66041333 Z"
     id="path8"
     sodipodi:nodetypes="ssssssssssss" /><path
     d="m 50.717275,36.827589 c -1.917511,6.645103 -25.942957,11.394739 -30.753964,10.649018 1.547481,1.222584 2.344788,3.113661 5.619874,3.364945 12.259534,-0.939025 26.29033,-12.480179 25.13409,-14.013963 z"
     style="baseline-shift:baseline;display:inline;overflow:visible;vector-effect:none;fill:#ffffff;fill-opacity:1;stroke-width:1;stroke-linecap:round;enable-background:accumulate;stop-color:#000000;stop-opacity:1"
     id="path4"
     sodipodi:nodetypes="cccc" /><path
     style="color:#000000;font-style:normal;font-variant:normal;font-weight:normal;font-stretch:normal;font-size:medium;line-height:normal;font-family:sans-serif;font-variant-ligatures:normal;font-variant-position:normal;font-variant-caps:normal;font-variant-numeric:normal;font-variant-alternates:normal;font-variant-east-asian:normal;font-feature-settings:normal;font-variation-settings:normal;text-indent:0;text-align:start;text-decoration-line:none;text-decoration-style:solid;text-decoration-color:#000000;letter-spacing:normal;word-spacing:normal;text-transform:none;writing-mode:lr-tb;direction:ltr;text-orientation:mixed;dominant-baseline:auto;baseline-shift:baseline;text-anchor:start;white-space:normal;shape-padding:0;shape-margin:0;inline-size:0;clip-rule:nonzero;display:inline;overflow:visible;visibility:visible;isolation:auto;mix-blend-mode:normal;color-interpolation:sRGB;color-interpolation-filters:linearRGB;solid-color:#000000;solid-opacity:1;vector-effect:none;fill:#42c9b3;fill-opacity:1;fill-rule:nonzero;stroke:none;stroke-width:1;stroke-linecap:round;stroke-linejoin:miter;stroke-miterlimit:4;stroke-dasharray:none;stroke-dashoffset:0;stroke-opacity:1;-inkscape-stroke:none;color-rendering:auto;image-rendering:auto;shape-rendering:auto;text-rendering:auto;enable-background:accumulate;stop-color:#000000;stop-opacity:1"
     d="m 24.469461,11.402598 c -2.369674,0.639387 -8.320083,3.528376 -11.812437,7.132522 -13.0899927,13.509011 19.309192,6.248769 26.184673,7.704886 2.493238,0.528027 2.745178,3.404034 2.725734,5.705163 -0.11191,13.244511 -38.7950138,10.793063 -22.004514,-0.377253 1.315954,-0.875473 7.074069,-3.507321 5.255454,-2.63235 -2.024519,0.974036 -8.338885,3.450725 -10.541466,6.748345 -1.367904,2.357564 -0.995734,5.006855 1.742894,6.033018 6.014823,2.253753 26.110967,0.428081 25.776063,-12.131194 -0.295642,-11.086869 -11.713526,-4.236553 -19.378936,-2.773676 -3.352377,0.63977 -9.825095,1.876316 -11.511973,-0.207306 -3.1365757,-3.874274 3.167807,-7.794499 4.019605,-8.355053 5.673066,-3.733348 16.240649,-9.0875224 25.455158,-5.048859 1.60461,0.703291 -0.642991,2.861445 -3.998499,1.906507 -3.015556,-0.858191 3.742347,8.856766 6.585273,2.242798 0.03843,-0.0894 0.765616,-2.480271 0.08702,-3.499155 -0.316564,-0.475309 -0.988566,-1.190206 -2.382404,-1.831117 -3.813793,-1.753651 -8.453693,-1.848078 -11.93487,-1.459064 -1.859078,0.207748 -3.462508,0.624779 -4.266777,0.841788 z"
     id="path11"
     sodipodi:nodetypes="ssssssssssssssssssss" /></svg>
