<?xml version="1.0" encoding="UTF-8" standalone="no"?>
<!-- Created with Inkscape (http://www.inkscape.org/) -->

<svg
   width="200"
   height="200"
   viewBox="0 0 52.916665 52.916666"
   version="1.1"
   id="svg1"
   inkscape:version="1.4 (86a8ad7, 2024-10-11)"
   sodipodi:docname="sg_logo_with_background.svg"
   xml:space="preserve"
   inkscape:export-filename="sg_logo_with_background.png"
   inkscape:export-xdpi="96"
   inkscape:export-ydpi="96"
   xmlns:inkscape="http://www.inkscape.org/namespaces/inkscape"
   xmlns:sodipodi="http://sodipodi.sourceforge.net/DTD/sodipodi-0.dtd"
   xmlns="http://www.w3.org/2000/svg"
   xmlns:svg="http://www.w3.org/2000/svg"><sodipodi:namedview
     id="namedview1"
     pagecolor="#f40000"
     bordercolor="#000000"
     borderopacity="0.25"
     inkscape:showpageshadow="2"
     inkscape:pageopacity="0.0"
     inkscape:pagecheckerboard="0"
     inkscape:deskcolor="#d1d1d1"
     inkscape:document-units="mm"
     inkscape:zoom="4"
     inkscape:cx="13.5"
     inkscape:cy="110.625"
     inkscape:window-width="2560"
     inkscape:window-height="1351"
     inkscape:window-x="-9"
     inkscape:window-y="88"
     inkscape:window-maximized="1"
     inkscape:current-layer="svg1"
     showguides="true"
     showgrid="false"
     inkscape:export-bgcolor="#ffffff00"><inkscape:page
       x="0"
       y="0"
       width="52.916664"
       height="52.916664"
       id="page2"
       margin="0"
       bleed="0" /></sodipodi:namedview><defs
     id="defs1" /><path
     id="path1"
     style="display:inline;fill:#030712;fill-opacity:1;stroke:#f2f2f2;stroke-width:0.264583;stroke-linecap:round;stroke-opacity:0"
     d="m 50.335563,26.553657 c 0,2.910625 -0.310592,5.668846 -1.26955,8.232683 -3.376582,9.027511 -12.358773,15.40355 -22.629025,15.40355 -6.863436,0 -14.19821,-1.994032 -18.5537533,-6.620766 C 3.8702732,39.306302 2.5811031,32.863917 2.5811031,26.553657 c 0,-13.159225 10.6901999,-23.8268818 23.8772299,-23.8268818 7.624219,0 14.39011,3.4860605 18.761639,9.0376788 1.049136,1.33235 1.969109,2.825153 2.721256,4.375992 1.53452,3.164015 2.394335,6.688027 2.394335,10.413211 z"
     sodipodi:nodetypes="sssssssss" /><path
     style="display:none;fill:#ffffff;fill-opacity:1;stroke-width:2.64583;stroke-linecap:round;stroke-dasharray:none"
     d="M 26.458984,0.01757813 C 11.793074,-0.32206388 1.1579144,11.493535 0.01757813,26.458984 -1.175966,42.122718 10.014523,54.108802 26.458984,52.900391 42.012071,51.757482 53.436307,41.316905 52.900391,26.458984 52.624381,18.806791 49.293736,11.927595 44.09107,7.0986147 39.372577,2.7190299 33.401698,0.1783617 26.458984,0.01757813 Z m -0.472704,0.6428352 c 9.118648,0.039931 17.619667,4.28203617 22.305932,11.35201267 2.744319,4.140241 4.133537,9.110635 4.342554,14.446558 C 53.19893,40.861322 40.923507,52.380216 26.458984,52.634766 11.407474,52.899646 3.7314363,43.2596 1.9168871,35.22031 -1.8202848,18.662915 10.251321,0.5915091 25.98628,0.66041333 Z"
     id="path8"
     sodipodi:nodetypes="ssssssssssss" /><path
     d="m 50.717275,36.827589 c -1.917511,6.645103 -25.083061,14.702031 -29.894068,13.95631 1.547481,1.222584 3.469267,0.666265 6.744353,0.917549 12.259534,-0.939025 24.305955,-13.340075 23.149715,-14.873859 z"
     style="baseline-shift:baseline;display:none;overflow:visible;vector-effect:none;fill:#ffffff;fill-opacity:1;stroke-width:1;stroke-linecap:round;enable-background:accumulate;stop-color:#000000;stop-opacity:1"
     id="path4"
     sodipodi:nodetypes="cccc" /><path
     style="color:#000000;font-style:normal;font-variant:normal;font-weight:normal;font-stretch:normal;font-size:medium;line-height:normal;font-family:sans-serif;font-variant-ligatures:normal;font-variant-position:normal;font-variant-caps:normal;font-variant-numeric:normal;font-variant-alternates:normal;font-variant-east-asian:normal;font-feature-settings:normal;font-variation-settings:normal;text-indent:0;text-align:start;text-decoration-line:none;text-decoration-style:solid;text-decoration-color:#000000;letter-spacing:normal;word-spacing:normal;text-transform:none;writing-mode:lr-tb;direction:ltr;text-orientation:mixed;dominant-baseline:auto;baseline-shift:baseline;text-anchor:start;white-space:normal;shape-padding:0;shape-margin:0;inline-size:0;clip-rule:nonzero;display:inline;overflow:visible;visibility:visible;isolation:auto;mix-blend-mode:normal;color-interpolation:sRGB;color-interpolation-filters:linearRGB;solid-color:#000000;solid-opacity:1;vector-effect:none;fill:#42c9b3;fill-opacity:1;fill-rule:nonzero;stroke:none;stroke-width:0.999997;stroke-linecap:round;stroke-linejoin:miter;stroke-miterlimit:4;stroke-dasharray:none;stroke-dashoffset:0;stroke-opacity:1;-inkscape-stroke:none;color-rendering:auto;image-rendering:auto;shape-rendering:auto;text-rendering:auto;enable-background:accumulate;stop-color:#000000;stop-opacity:1"
     d="m 24.530878,7.3013144 c -2.135551,0.581515 -7.500844,3.2009896 -10.645372,6.4869476 -15.6424426,16.345987 10.361944,18.367156 22.382493,13.75849 2.148625,-0.823782 5.006926,4.390226 5.242636,6.469589 1.448252,12.775999 -31.8699256,9.478671 -22.781203,2.033167 1.105914,-0.905968 7.881742,-5.126333 6.375509,-4.228938 -4.806084,2.863412 -12.852796,4.00603 -13.017001,7.43096 -0.601612,12.54819 31.625754,8.490296 30.165052,-9.9679 C 41.440231,19.013148 31.491945,21.750236 24.259424,24.925273 -3.8874223,37.281582 11.828173,1.3777381 38.363392,12.095055 c 1.466154,0.592165 1.696697,5.867544 -1.327288,4.99904 -2.71762,-0.780516 -0.339802,3.300468 6.145406,3.486116 0.09909,0.0028 3.486977,-8.178198 -5.356388,-12.2819286 -3.436991,-1.5949258 -6.311786,-2.1163682 -9.449024,-1.7625644 -1.675403,0.1889442 -3.84522,0.7655964 -3.84522,0.7655964 z"
     id="path11"
     sodipodi:nodetypes="sssssssssssssss" /></svg>
