<?xml version="1.0" standalone="no"?>
<!DOCTYPE svg PUBLIC "-//W3C//DTD SVG 20010904//EN"
 "http://www.w3.org/TR/2001/REC-SVG-20010904/DTD/svg10.dtd">
<svg version="1.0" xmlns="http://www.w3.org/2000/svg"
 width="500.000000pt" height="500.000000pt" viewBox="0 0 500.000000 500.000000"
 preserveAspectRatio="xMidYMid meet">

<g transform="translate(0.000000,500.000000) scale(0.100000,-0.100000)"
fill="#000000" stroke="none">
<path d="M2000 4447 c0 -7 16 -61 36 -122 75 -233 114 -445 114 -624 0 -128
-11 -137 -80 -65 -63 64 -221 183 -315 237 -86 50 -194 92 -271 106 -79 15
-213 -13 -359 -74 -22 -9 -53 -22 -69 -28 -49 -20 -217 -104 -278 -139 -230
-133 -218 -116 -112 -173 363 -197 682 -488 791 -722 18 -39 33 -76 33 -81 0
-4 -35 -16 -77 -26 -73 -17 -173 -47 -218 -66 -102 -41 -171 -73 -295 -135
-133 -66 -229 -115 -239 -122 -11 -8 16 -16 123 -38 170 -35 390 -98 526 -150
91 -35 211 -97 208 -107 -3 -9 -298 -187 -333 -201 -25 -10 11 -17 165 -31
498 -47 491 -46 525 -72 18 -13 36 -24 41 -24 5 0 19 -24 32 -53 24 -54 89
-129 207 -235 147 -133 229 -171 367 -172 109 0 167 20 263 92 98 74 248 220
285 277 l31 49 137 6 c75 3 178 10 227 14 l90 7 -102 49 c-95 45 -123 66 -90
66 8 0 43 9 78 20 35 11 82 25 104 31 86 24 111 32 130 40 31 12 156 48 193
55 18 4 35 11 38 15 3 5 18 9 34 9 36 0 47 16 17 24 -29 9 -325 87 -354 93
-34 8 -28 19 25 45 43 22 84 44 212 116 25 14 73 40 107 59 34 18 126 71 205
116 79 45 170 96 201 112 31 17 57 33 57 36 0 10 -58 17 -165 18 -55 1 -156 6
-225 11 -69 5 -140 10 -157 10 -18 0 -33 4 -33 9 0 4 46 47 101 95 56 47 131
113 166 146 l64 60 -43 0 c-24 0 -97 -5 -163 -10 -66 -5 -203 -16 -305 -25
-268 -21 -252 -23 -272 28 -27 64 -90 155 -150 217 -57 59 -138 106 -253 150
l-70 27 -7 119 c-4 66 -12 139 -18 164 -6 25 -16 65 -21 90 -37 165 -116 343
-181 409 -90 91 -197 142 -458 215 -91 26 -177 51 -192 56 -20 6 -28 6 -28 -3z
m812 -1824 c4 -172 -3 -252 -32 -418 -5 -27 -11 -68 -14 -90 l-5 -40 30 35
c90 105 190 252 256 376 37 69 48 83 59 73 23 -19 12 -117 -30 -254 -8 -27
-18 -60 -22 -72 -9 -32 6 -29 55 13 23 20 44 34 47 31 3 -3 -9 -33 -26 -67
-17 -34 -29 -64 -26 -67 3 -3 34 15 70 41 35 25 69 46 74 46 16 0 24 -102 12
-153 -12 -58 -42 -106 -107 -176 -31 -34 -57 -54 -72 -55 -21 -1 -27 -10 -39
-55 -13 -46 -29 -67 -111 -151 -94 -96 -197 -181 -256 -213 -101 -53 -238 -49
-333 10 -58 36 -162 125 -237 202 -93 95 -92 94 -106 149 -9 33 -19 46 -43 56
-43 19 -92 69 -137 139 -38 59 -39 61 -39 157 0 90 13 160 29 160 4 0 33 -31
65 -70 64 -78 82 -88 71 -37 -3 17 -9 50 -12 72 l-6 40 44 -40 c24 -22 47 -46
52 -52 4 -7 16 -17 27 -23 18 -9 18 -6 13 83 -8 137 6 190 67 255 28 28 65 59
82 68 l31 16 -7 -113 c-7 -118 11 -389 26 -389 4 0 8 4 8 9 0 16 109 171 180
256 128 153 306 315 348 315 8 0 12 -21 14 -67z"/>
</g>
</svg>
