<svg id="vector" xmlns="http://www.w3.org/2000/svg" width="800" height="800" viewBox="0 0 512 512"><path fill="#F6BF5F" d="M511.99,256c0,141.38 -114.61,256 -255.99,256C114.61,512 0,397.38 0,256C0,114.61 114.61,0 256,0C397.38,0 511.99,114.61 511.99,256z" id="path_0"/><path fill="#E9913A" d="M451.82,319.52c-20.44,62.93 -70.59,112.75 -133.7,132.76c-6.95,2.21 -10.8,9.63 -8.59,16.57c2.2,6.94 9.62,10.79 16.57,8.58c71.3,-22.63 127.7,-78.68 150.83,-149.76c2.26,-6.93 -1.54,-14.37 -8.47,-16.63C461.52,308.79 454.08,312.59 451.82,319.52L451.82,319.52z" id="path_1"/><path fill="#ECC688" d="M256,0C114.61,0 0,114.61 0,256c0,82.81 39.35,156.38 100.33,203.17l358.84,-358.84C412.38,39.35 338.8,0 256,0z" id="path_2"/><path fill="#FFFFFF" d="M199.05,30.82C117.97,51.35 53.87,114.45 31.9,194.95c-1.92,7.03 2.22,14.29 9.26,16.21c7.03,1.92 14.29,-2.23 16.21,-9.26C76.77,130.64 133.76,74.54 205.52,56.4c7.07,-1.79 11.35,-8.97 9.56,-16.03C213.29,33.3 206.11,29.02 199.05,30.82z" id="path_3"/><path fill="#EA514F" d="M256,177.69l22.34,55.83l59.99,4l-46.19,38.5l14.75,58.29l-50.89,-32.03l-50.88,32.03l14.74,-58.29l-46.19,-38.5l60,-4z" id="path_4"/></svg>