<?xml version="1.0" encoding="utf-8"?>
<!-- Uploaded to: SVG Repo, www.svgrepo.com, Generator: SVG Repo Mixer Tools -->
<svg width="800px" height="800px" viewBox="0 0 1024 1024" class="icon"  version="1.1" xmlns="http://www.w3.org/2000/svg"><path d="M518.4 512m-262.4 0a262.4 262.4 0 1 0 524.8 0 262.4 262.4 0 1 0-524.8 0Z" fill="#17A09A" /><path d="M249.6 716.8c-44.8 0-76.8-12.8-89.6-38.4-19.2-38.4 6.4-96 76.8-160 6.4-6.4 6.4 0 12.8 0 6.4 6.4 0 6.4 0 12.8-64 64-89.6 115.2-76.8 147.2 12.8 25.6 64 32 134.4 19.2 76.8-12.8 166.4-44.8 256-96 198.4-108.8 307.2-236.8 281.6-288-12.8-38.4-76.8-38.4-172.8-19.2-6.4 0-6.4 0-12.8-6.4 0-6.4 0-6.4 6.4-12.8 102.4-19.2 179.2-12.8 198.4 25.6 38.4 70.4-89.6 204.8-288 313.6-89.6 51.2-185.6 83.2-262.4 96-25.6 6.4-44.8 6.4-64 6.4z" fill="#FDD000" /></svg>