<svg id="vector" xmlns="http://www.w3.org/2000/svg" width="62.642" height="61.054" viewBox="0 0 62.642 61.054"><path fill="#f07a7b" d="m31.237,2.254c-3.371,-2.362 -12.022,-2.829 -13.145,-0.249 -1.187,2.728 -0.569,2.171 -2.194,1.652 -2.961,-0.945 -8.673,2.069 -9.673,4.465 -1.645,3.939 2.513,7.768 -0.31,5.191 -2.48,-2.265 -4.951,4.064 -5.538,8.808 -0.983,6.179 4.802,4.613 3.258,5.53 -12.532,7.438 13.402,23.702 27.846,26.134m-0.245,-51.529c3.371,-2.362 12.186,-2.837 13.308,-0.256 1.187,2.728 0.569,2.171 2.194,1.652 2.961,-0.945 8.678,2.075 9.678,4.47 1.645,3.939 -2.513,7.768 0.31,5.191 2.48,-2.265 4.951,4.064 5.538,8.808 0.983,6.179 -4.802,4.613 -3.258,5.53 12.532,7.438 -13.081,23.701 -27.525,26.133" stroke-width="0.529166" stroke="#000000" id="path_0"/><path fill="#f07a7b" d="m3.823,27.407c0,0 6.808,1.964 7.73,1.656 3.086,-1.03 4.562,-2.289 4.376,-2.289l-1.941,-3.064 1.918,3.087 3.157,1.731" stroke-width="0.529167" stroke="#000000" id="path_1"/><path fill="#f07a7b" d="m6.878,14.014c0.033,0.165 0.943,2.613 0.943,2.613 0.472,2.64 0.309,2.646 0.198,3.539" stroke-width="0.529167" stroke="#000000" id="path_2"/><path fill="#f07a7b" d="m17.345,3.844c-0.238,1.552 -2.133,3.77 -2.133,3.77" stroke-width="0.529167" stroke="#000000" stroke-linecap="round" id="path_3"/><path fill="#f07a7b" d="m31.17,2.124c1.022,0.984 -1.265,7.153 -0.562,7.21 1.65,0.133 5.308,-0.628 5.308,-0.628" stroke-width="0.529167" stroke="#000000" stroke-linecap="round" id="path_4"/><path fill="#f07a7b" d="m30.709,9.328c-2.082,-0.016 -3.493,-0.48 -4.993,-0.935" stroke-width="0.529167" stroke="#000000" stroke-linecap="round" id="path_5"/><path fill="#f07a7b" d="m45.383,3.95c0.745,1.525 1.758,2.671 2.783,3.543" stroke-width="0.529167" stroke="#000000" stroke-linecap="round" id="path_6"/><path fill="#f07a7b" d="m55.907,14.076c0.143,-0.048 -1.864,1.667 -2.666,1.929 -0.836,0.273 -4.408,-0.254 -4.362,-0.269" stroke-width="0.529167" stroke="#000000" stroke-linecap="round" id="path_7"/><path fill="#f07a7b" d="m53.097,30.435c-0.12,-1.166 -0.023,-2.616 0.157,-3.845 0.345,-2.214 0.286,-2.726 0.819,-3.638" stroke-width="0.529167" stroke="#000000" stroke-linecap="round" id="path_8"/><path fill="#f07a7b" d="m58.819,27.442c-1.951,-0.282 -3.553,-0.463 -5.25,-0.695" stroke-width="0.529167" stroke="#000000" stroke-linecap="round" id="path_9"/><path fill="#fae0d2" d="m52.688,41.063c0,7.047 -4.01,13.559 -10.518,17.083 -6.509,3.524 -14.528,3.524 -21.036,-0 -6.509,-3.524 -10.518,-10.036 -10.518,-17.083l14.674,-0.076 5.22,-0.308 6.745,0.391z" stroke-width="0.529167" stroke="#000000" id="path_10"/><path fill="#d1f9f6" d="M6,39.299a9.239,9.348 0,1 0,18.479 0a9.239,9.348 0,1 0,-18.479 0z" stroke-width="1.5875" stroke="#000000" id="path_11"/><path fill="#ffffff" d="m32.705,55.691c-1.59,0.042 8.332,-4.442 8.332,-4.442 0,0 1.321,-0.479 0.773,0.449 -0.548,0.928 -2.063,2.086 -3.828,3.009 -1.765,0.923 -3.687,0.943 -5.277,0.985z" stroke-width="0.529167" stroke="#000000" id="path_12"/><path fill="#d1f9f6" d="M37.495,39.299a9.239,9.348 0,1 0,18.479 0a9.239,9.348 0,1 0,-18.479 0z" stroke-width="1.5875" stroke="#000000" id="path_13"/><path fill="#ffffff" d="m24.47,41.158 l3.578,-0.328 2.982,-0.148 3.047,0.181 3.762,0.295" stroke-width="1.5875" stroke="#000000" id="path_14"/><path fill="#000000FF" d="m26.617,23.306 l4.736,1.809 0.572,0.22 -3.69,6.584 7.39,-5.153 -0.004,-0.002 2.188,-1.537 -5.155,-1.933 2.391,-4.763z" stroke-width="0.207" id="path_15"/><path fill="#fdff4f" d="M33.173,25.036 L28.372,23.198 32.932,20.615l-1.504,2.996 4.751,1.781 -2.12,1.488 -3.153,2.198z" stroke-width="0.207" id="path_16"/><path fill="#e2fa48" d="m19.177,43.269l-1.343,0l0,-6.784l-2.807,4.616l-0.8,0l-2.787,-4.616l0,6.784l-1.255,0l0,-7.873l1.831,0l2.692,4.383 2.604,-4.383l1.865,0z" stroke-width="0.529" stroke="#e2fa48" stroke-linecap="round" id="path_17"/><path fill="#000000FF" d="m19.177,43.269l-1.343,0l0,-6.784l-2.807,4.616l-0.8,0l-2.787,-4.616l0,6.784l-1.255,0l0,-7.873l1.831,0l2.692,4.383 2.604,-4.383l1.865,0z" stroke-width="0.265" stroke="#000000" stroke-linecap="round" id="path_18"/><path fill="#e2fa48" d="m51.456,43.269l-1.343,0l0,-6.784l-2.807,4.616l-0.8,0l-2.787,-4.616l0,6.784l-1.255,0l0,-7.873l1.831,0l2.692,4.383 2.604,-4.383l1.865,0z" stroke-width="0.529" stroke="#e2fa48" stroke-linecap="round" id="path_19"/><path fill="#000000FF" d="m51.456,43.269l-1.343,0l0,-6.784l-2.807,4.616l-0.8,0l-2.787,-4.616l0,6.784l-1.255,0l0,-7.873l1.831,0l2.692,4.383 2.604,-4.383l1.865,0z" stroke-width="0.265" stroke="#000000" stroke-linecap="round" id="path_20"/></svg>