<svg id="vector" xmlns="http://www.w3.org/2000/svg" width="800" height="800" viewBox="0 0 100 100"><path fill="#000000" d="M83.12,0c-6.88,0 -12.7,4.74 -14.38,11.09l-1.85,-0.86a2.5,2.5 0,0 0,-2.11 0L34.17,24.45L3.55,10.23A2.5,2.5 0,0 0,0 12.5v70.29a2.5,2.5 0,0 0,1.45 2.27l31.67,14.71a2.5,2.5 0,0 0,2.11 0l30.61,-14.22l30.61,14.22c1.66,0.77 3.55,-0.44 3.55,-2.27L100,27.21a2.5,2.5 0,0 0,-1.45 -2.27l-3.23,-1.5l1.01,-1.72c0.23,-0.42 0.41,-0.86 0.57,-1.32A14.65,14.65 0,0 0,98 14.84C98,6.68 91.3,0 83.12,0zM83.12,6.95c4.41,0 7.91,3.5 7.91,7.89c0,4.39 -3.5,7.89 -7.91,7.89s-7.91,-3.49 -7.91,-7.89c0,-4.39 3.5,-7.89 7.91,-7.89zM66.95,15.77l1.38,0.64a14.73,14.73 0,0 0,2.63 6.94l10.35,17.89c1.45,1.89 2.41,1.53 3.62,-0.1l7.86,-13.37L95,28.81L95,93.58L67.32,80.72l-0.23,-39.68c0.41,0.09 0.81,0.17 1.22,0.27l0.92,-3.89a63.86,63.86 0,0 0,-2.17 -0.47l-0.12,-21.18zM63.95,16.13l0.12,20.34a33.73,33.73 0,0 0,-3.11 -0.28l-0.15,4c1.09,0.04 2.18,0.16 3.29,0.32l0.23,40.23l-28.68,13.32l-0.37,-64.6L63.95,16.13zM5,16.42l27.27,12.67l0.37,64.95L5,81.19L5,16.42zM56.54,36.46c-1.38,0.25 -2.79,0.69 -4.1,1.45a9.93,9.93 0,0 0,-3.73 3.82l3.5,1.93a6,6 0,0 1,2.23 -2.29l0.01,-0l0.01,-0c0.81,-0.47 1.77,-0.79 2.8,-0.97l-0.71,-3.94zM73.21,38.49l-1.13,3.83c2.5,0.74 4.98,1.59 7.45,2.51l1.4,-3.75c-2.53,-0.94 -5.1,-1.82 -7.71,-2.6zM47.21,46.08l-0.03,0.16l-0,0.01c-0.5,2.83 -0.45,5.62 -0.33,8.27l4,-0.17c-0.11,-2.57 -0.13,-5.05 0.28,-7.39l0.02,-0.13l-3.93,-0.75zM51.07,58.29l-3.99,0.27c0.18,2.67 0.37,5.28 0.37,7.85l4,0.01c0.01,-2.77 -0.19,-5.48 -0.38,-8.13zM47.25,70.18c-0.11,0.95 -0.27,1.88 -0.51,2.77l-0,0l-0,0.01c-0.35,1.34 -0.94,2.57 -1.76,3.54l3.05,2.59c1.29,-1.51 2.11,-3.3 2.58,-5.1l0,-0.01c0.3,-1.12 0.5,-2.24 0.62,-3.35l-3.97,-0.45zM13.48,74.08l-1.8,3.57c2.48,1.25 5.05,2.28 7.63,3.17l1.3,-3.78c-2.45,-0.85 -4.85,-1.82 -7.14,-2.96zM24.32,78.19l-1.06,3.86c2.65,0.73 5.37,1.31 8.15,1.63l0.45,-3.97c-2.52,-0.28 -5.03,-0.82 -7.53,-1.51zM42.46,78.48c-1.99,1.02 -4.4,1.4 -6.87,1.43l0.05,4c2.83,-0.03 5.86,-0.44 8.64,-1.87l-1.82,-3.56z" fill-rule="evenodd" id="path_0"/></svg>