<svg id="vector" xmlns="http://www.w3.org/2000/svg" width="800" height="800" viewBox="0 0 229.98 229.98"><path fill="#000000" d="M223.21,127c-0.72,0 -1.45,0.1 -2.18,0.3l-8.3,2.29l-8.62,-21c-2.44,-5.95 -9.66,-10.79 -16.09,-10.79h-27.84V81.72c0,-5.97 -1.85,-15.33 -4.11,-20.85l-1.39,-3.39h1.05c4.82,0 8.74,-3.92 8.74,-8.74v-4.89c0,-4.13 -2.85,-7.13 -6.77,-7.13c-0.72,0 -1.45,0.1 -2.18,0.3l-8.3,2.29l-8.62,-21c-2.44,-5.95 -9.66,-10.79 -16.09,-10.79H41.85c-6.43,0 -13.65,4.84 -16.09,10.79l-8.61,20.97l-8.19,-2.26c-0.73,-0.2 -1.47,-0.31 -2.18,-0.31C2.85,36.72 0,39.71 0,43.84v4.89c0,4.82 3.92,8.74 8.74,8.74h0.94l-1.39,3.39c-2.27,5.53 -4.11,14.88 -4.11,20.85v41.71c0,4.82 3.92,8.74 8.74,8.74h11.42c4.82,0 8.74,-3.92 8.74,-8.74v-10.42h56.38l-6.79,16.55l-8.2,-2.26c-0.73,-0.2 -1.47,-0.3 -2.18,-0.3c-3.92,0 -6.77,3 -6.77,7.13v4.89c0,4.82 3.92,8.74 8.74,8.74h0.94l-1.39,3.39c-2.27,5.53 -4.11,14.88 -4.11,20.85v41.71c0,4.82 3.92,8.74 8.74,8.74h11.42c4.82,0 8.74,-3.92 8.74,-8.74v-10.42h98.21v10.42c0,4.82 3.92,8.74 8.74,8.74h11.41c4.82,0 8.74,-3.92 8.74,-8.74v-41.71c0,-5.97 -1.85,-15.33 -4.11,-20.85l-1.39,-3.39h1.05c4.82,0 8.74,-3.92 8.74,-8.74v-4.89C229.98,130 227.13,127 223.21,127zM143.36,81.01v11.89c0,1.92 -1.57,3.5 -3.5,3.5h-24.77c-1.92,0 -3.5,-1.57 -3.5,-3.5V81.01c0,-1.92 1.57,-3.5 3.5,-3.5h24.77C141.78,77.51 143.36,79.09 143.36,81.01zM52.52,92.9c0,1.92 -1.57,3.5 -3.5,3.5H24.26c-1.92,0 -3.5,-1.57 -3.5,-3.5V81.01c0,-1.92 1.57,-3.5 3.5,-3.5h24.77c1.92,0 3.5,1.57 3.5,3.5V92.9zM27.75,59.2c-3.85,0 -5.8,-2.91 -4.34,-6.47l13.04,-31.76c1.46,-3.56 5.8,-6.47 9.65,-6.47h72.15c3.85,0 8.19,2.91 9.65,6.47l13.04,31.76c1.46,3.56 -0.49,6.47 -4.34,6.47H27.75zM88.93,143.01l13.04,-31.76c1.46,-3.56 5.8,-6.47 9.65,-6.47h72.15c3.85,0 8.19,2.91 9.65,6.47l13.04,31.76c1.46,3.56 -0.49,6.47 -4.34,6.47H93.27C89.42,149.48 87.47,146.57 88.93,143.01zM118.03,183.18c0,1.92 -1.57,3.5 -3.5,3.5H89.77c-1.92,0 -3.5,-1.57 -3.5,-3.5v-11.89c0,-1.92 1.57,-3.5 3.5,-3.5h24.77c1.92,0 3.5,1.57 3.5,3.5V183.18zM208.87,183.18c0,1.92 -1.57,3.5 -3.5,3.5h-24.77c-1.92,0 -3.5,-1.57 -3.5,-3.5v-11.89c0,-1.92 1.57,-3.5 3.5,-3.5h24.77c1.92,0 3.5,1.57 3.5,3.5V183.18z" id="path_0"/></svg>